<svg id="Layer_2" height="512" viewBox="0 0 64 64" width="512" xmlns="http://www.w3.org/2000/svg" data-name="Layer 2"><path d="m45.435 35.1c-4.391-2.122-8.739-4.463-12.923-6.958l-.542-.323-.524.349a67.076 67.076 0 0 1 -8.149 4.3c-1.458.691-2.944 1.4-4.417 2.142-2.506 1.271-5.219 2.615-7.881 3.83q-.792.362-1.575.705l-.237.1c-.45.2-.9.389-1.34.573-.237.1-.467.19-.7.285-.3.12-.594.243-.884.356-.541.211-1.074.411-1.592.595a1 1 0 0 0 .329 1.946h4.82l-.333 2h46.027l-.333-2h3.819a1 1 0 0 0 .352-1.936q-1.6-.6-3.2-1.245c-3.624-1.449-7.217-3.028-10.717-4.719zm-12.435 3.9h-2a1 1 0 0 1 0-2h2a1 1 0 0 1 0 2z"/><path d="m62.637 62-6.673-14.3-.117-.7h-46.847a1 1 0 0 0 -.906.577l-6.731 14.423h-1.363v2h64v-2zm-16.637-10h4a1 1 0 0 1 0 2h-4a1 1 0 0 1 0-2zm-8 0h4a1 1 0 0 1 0 2h-4a1 1 0 0 1 0-2zm-8 0h4a1 1 0 0 1 0 2h-4a1 1 0 0 1 0-2zm-8 0h4a1 1 0 0 1 0 2h-4a1 1 0 0 1 0-2zm-8 0h4a1 1 0 0 1 0 2h-4a1 1 0 0 1 0-2zm0 7h-4a1 1 0 0 1 0-2h4a1 1 0 0 1 0 2zm8 0h-4a1 1 0 0 1 0-2h4a1 1 0 0 1 0 2zm8 0h-4a1 1 0 0 1 0-2h4a1 1 0 0 1 0 2zm8 0h-4a1 1 0 0 1 0-2h4a1 1 0 0 1 0 2zm8 0h-4a1 1 0 0 1 0-2h4a1 1 0 0 1 0 2zm8 0h-4a1 1 0 0 1 0-2h4a1 1 0 0 1 0 2z"/><path d="m12 14h14.963l4.386-3.759a1 1 0 0 1 1.3 0l4.388 3.759h14.963a1 1 0 0 0 .759-1.651l-5.759-6.719v-4.63a1 1 0 0 0 -2 0v4h-12v-4a1 1 0 0 0 -2 0v4h-12v-4a1 1 0 0 0 -2 0v4.63l-5.759 6.719a1 1 0 0 0 .759 1.651z"/><path d="m59.651 28.241-7-6a1 1 0 0 0 -.651-.241h-5v-6h-7.63l7 6h-3.07l-11.3-9.683-11.3 9.683h-3.07l7-6h-7.63v6h-6a1 1 0 0 0 -.707.293l-6 6a1 1 0 0 0 .707 1.707h18.827a54.637 54.637 0 0 0 6.512-3.5l1.049-.7a1 1 0 0 1 1.066-.026l1.083.646q3.1 1.85 6.308 3.577h19.155a1 1 0 0 0 .651-1.759zm-28.651-10.241h2a1 1 0 0 1 0 2h-2a1 1 0 0 1 0-2z"/><path d="m11 36.24c2.362-1.1 4.752-2.288 6.977-3.416.553-.28 1.11-.554 1.664-.824h-8.641z"/><path d="m46.305 33.3c2.195 1.062 4.437 2.08 6.695 3.05v-4.35h-9.309c.87.439 1.74.877 2.614 1.3z"/></svg>