<?xml version="1.0" standalone="no"?>
<!DOCTYPE svg PUBLIC "-//W3C//DTD SVG 20010904//EN"
 "http://www.w3.org/TR/2001/REC-SVG-20010904/DTD/svg10.dtd">
<svg version="1.0" xmlns="http://www.w3.org/2000/svg"
 width="180.000000pt" height="180.000000pt" viewBox="0 0 180.000000 180.000000"
 preserveAspectRatio="xMidYMid meet">
<metadata>
Created by potrace 1.16, written by Peter Selinger 2001-2019
</metadata>
<g transform="translate(0.000000,180.000000) scale(0.100000,-0.100000)"
fill="#000000" stroke="none">
<path d="M745 1771 c-70 -7 -97 -13 -230 -54 -40 -13 -97 -22 -132 -22 -68 0
-68 0 -77 -35 -6 -19 -5 -21 3 -10 9 13 11 13 11 -2 0 -9 -7 -21 -17 -26 -9
-5 -17 -19 -18 -31 -1 -12 -22 -44 -48 -71 -26 -27 -47 -54 -47 -60 0 -6 -12
-24 -26 -40 -27 -29 -48 -61 -59 -90 -4 -8 -11 -23 -16 -33 -6 -10 -7 -32 -4
-48 4 -16 2 -29 -3 -29 -5 0 -15 -15 -22 -32 -6 -18 -15 -40 -20 -49 -5 -9
-16 -57 -24 -107 -14 -81 -14 -100 -1 -174 8 -46 15 -109 15 -140 0 -32 5 -58
10 -58 6 0 10 -9 10 -20 0 -11 6 -20 13 -21 6 0 2 -4 -10 -9 -42 -17 -15 -118
27 -105 10 3 21 1 25 -5 4 -6 13 -9 21 -6 9 4 24 -14 43 -53 57 -112 187 -219
401 -329 109 -56 122 -60 320 -78 36 -4 70 -11 77 -16 12 -10 64 -3 93 13 8 4
42 15 75 24 33 9 89 32 125 51 35 19 68 34 73 34 12 0 81 32 87 41 3 3 19 10
36 13 18 4 49 20 70 36 22 16 44 30 50 30 12 0 52 68 57 98 2 9 11 33 19 52 9
19 24 55 33 80 23 60 39 94 46 100 11 9 41 198 38 241 -2 27 1 44 9 47 15 5
17 128 2 137 -5 3 -10 22 -10 41 0 19 -4 34 -10 34 -5 0 -10 10 -10 23 0 38
-12 67 -26 67 -8 0 -17 14 -21 30 -3 17 -10 33 -14 36 -5 3 -7 10 -3 15 3 6
-6 28 -20 49 -14 22 -26 44 -26 50 0 16 -71 90 -87 90 -8 0 -26 9 -40 20 -28
22 -58 26 -68 10 -11 -18 6 -50 36 -65 42 -22 89 -91 89 -131 0 -18 5 -36 10
-39 6 -3 10 -19 10 -36 0 -16 5 -29 10 -29 6 0 10 -7 10 -15 0 -8 4 -15 8 -15
8 0 22 -75 38 -195 5 -39 5 -40 -10 -15 -9 14 -27 47 -40 75 -14 27 -35 57
-47 66 -12 9 -27 32 -33 50 -15 47 -37 47 -59 0 -15 -32 -21 -37 -42 -33 -14
2 -30 13 -35 23 -6 10 -19 21 -30 24 -11 3 -20 13 -20 22 0 8 -27 42 -60 74
-33 32 -60 62 -60 65 0 4 -7 14 -15 23 -16 18 -83 97 -133 160 -19 23 -31 48
-28 56 3 10 -1 15 -13 15 -11 0 -26 3 -35 6 -12 5 -16 0 -16 -20 0 -58 -47
-110 -193 -214 -18 -12 -46 -38 -64 -58 -31 -35 -32 -35 -57 -19 -43 28 -77 5
-162 -110 -14 -19 -15 -19 -4 4 12 24 -1 54 -14 32 -4 -6 -20 -11 -37 -11 -26
0 -29 -3 -29 -34 0 -24 7 -39 21 -50 l21 -15 -34 -43 c-19 -24 -42 -55 -51
-70 -13 -21 -25 -28 -50 -28 -18 0 -43 -7 -55 -16 -22 -15 -22 -15 -23 33 -1
26 -3 74 -5 105 -1 32 2 60 7 63 5 4 9 14 9 24 0 9 9 27 20 39 11 12 20 30 20
40 0 11 7 25 15 32 8 7 15 16 15 21 0 20 148 199 164 199 3 0 37 20 76 45 60
38 79 45 136 49 41 3 79 13 100 26 20 11 46 20 60 20 15 0 24 6 24 15 0 23
119 19 216 -6 43 -12 116 -23 162 -25 80 -3 82 -3 82 20 0 13 -8 30 -18 39
-33 30 -166 79 -234 87 -37 4 -73 12 -81 18 -17 14 -181 22 -272 13z m384
-549 c5 2 8 0 8 -3 -3 -11 35 -49 43 -44 4 3 15 -6 24 -20 9 -14 14 -25 11
-25 -11 0 19 -26 37 -33 9 -3 30 -32 45 -63 28 -56 38 -66 77 -79 17 -5 16 -8
-12 -36 -18 -17 -32 -37 -32 -44 0 -7 -7 -18 -15 -25 -13 -11 -21 -8 -45 15
-18 17 -30 39 -30 54 -1 34 -53 96 -74 88 -9 -4 -16 -13 -16 -22 0 -8 -10 -32
-23 -53 -42 -70 -77 -168 -77 -219 0 -25 -31 -103 -41 -103 -7 0 -2 80 12 175
14 102 30 239 36 325 3 41 9 79 14 85 5 5 9 17 9 27 0 15 3 17 20 8 10 -6 23
-9 29 -8z"/>
</g>
</svg>
