<?xml version="1.0" encoding="utf-8"?>
<!-- Svg Vector Icons : http://www.onlinewebfonts.com/icon -->
<!DOCTYPE svg PUBLIC "-//W3C//DTD SVG 1.1//EN" "http://www.w3.org/Graphics/SVG/1.1/DTD/svg11.dtd">
<svg version="1.1" xmlns="http://www.w3.org/2000/svg" xmlns:xlink="http://www.w3.org/1999/xlink" x="0px" y="0px" viewBox="0 0 1000 1000" enable-background="new 0 0 1000 1000" xml:space="preserve">
<metadata> Svg Vector Icons : http://www.onlinewebfonts.com/icon </metadata>
<g><g transform="translate(0.000000,511.000000) scale(0.100000,-0.100000)"><path d="M2092.9,3587.2c-155.2-292.1-289.8-540.9-299-550c-9.1-11.4-257.9,107.3-550,262.4c-294.4,152.9-547.7,280.7-563.7,280.7c-34.2,0-602.5-1065.7-579.7-1088.6c9.1-6.8,253.3-139.2,540.9-292.1c289.8-152.9,531.7-285.3,540.9-292.1c6.8-9.1-116.4-262.4-278.4-563.7c-159.7-301.2-285.3-554.5-276.1-563.7c9.1-11.4,255.6-146,550-301.2c358.3-189.4,540.9-276.1,550-257.9c9.1,16,141.5,262.4,294.4,552.3c152.9,287.5,280.7,527.2,285.3,531.7c6.8,6.9,609.3-305.8,983.6-511.2l136.9-75.3l292.1,550c159.7,301.2,283,556.8,271.6,566c-9.1,9.1-257.9,143.8-547.7,299c-292.1,155.2-531.7,292.1-531.7,301.2c0,11.4,127.8,262.4,285.3,559.1c157.5,296.7,278.4,545.4,267,554.6c-25.1,25.1-1047.5,568.2-1070.3,568.2C2382.8,4116.7,2248.1,3877.1,2092.9,3587.2z"/><path d="M7704.6,2434.8c-180.3-18.3-381.1-57.1-538.6-107.3c-187.1-59.3-602.5-280.7-602.5-319.5c0-13.7,61.6-130.1,136.9-260.2l139.2-232.8l118.7,70.7c369.7,219.1,522.6,257.9,997.3,260.2h376.6l27.4,273.9c13.7,150.6,25.1,276.1,22.8,278.4c-4.6,2.3-111.8,16-241.9,27.4C7907.7,2450.8,7862.1,2450.8,7704.6,2434.8z"/><path d="M8873.1,1830l-212.2-184.8l77.6-82.2c283-301.2,429-591.1,520.3-1042.9c27.4-136.9,59.3-257.9,68.5-269.3c16-18.3,504.4,63.9,547.7,91.3c25.1,16-93.6,529.4-173.4,757.6c-43.4,118.7-120.9,289.8-173.4,381.1c-89,157.5-392.5,536.3-426.8,536.3C9092.1,2017.2,8989.4,1932.7,8873.1,1830z"/><path d="M5936,1168.2c-66.2-141.5-198.6-458.7-292.1-702.9c-93.6-244.2-194-495.2-219.1-554.6l-47.9-109.5l52.5-18.3c27.4-11.4,146.1-61.6,264.7-114.1c118.7-52.5,216.8-93.6,221.4-93.6c2.3,0,84.4,203.1,180.3,451.8c228.2,575.1,342.3,851.2,424.5,1013.3l66.2,132.4l-251,125.5c-136.9,68.5-255.6,125.5-264.7,125.5C6063.8,1423.8,6004.5,1307.4,5936,1168.2z"/><path d="M2478.6,720.9c-143.8-29.7-267-59.3-271.6-63.9c-16-16,93.6-495.2,157.5-680.1c70.7-207.7,178-431.3,280.7-584.2c86.7-127.8,317.2-410.8,333.2-410.8c18.3,0,422.2,342.3,431.3,362.9c2.3,9.1-43.4,70.7-102.7,139.2c-251,294.4-378.8,561.4-474.7,992.7c-31.9,150.6-68.5,280.7-75.3,287.5C2747.9,771.1,2622.4,750.6,2478.6,720.9z"/><path d="M9302.1-461.2c-47.9-356-203.1-944.8-248.8-944.8c-9.1,0-77.6,22.8-152.9,50.2c-184.9,66.2-600.2,73-785,9.1c-429-146-716.6-431.3-858.1-851.2c-203.1-600.2,89-1284.8,664.1-1558.7c381.1-182.6,741.7-187.1,1118.2-11.4c408.5,187.1,675.5,554.6,741.7,1015.5c38.8,271.6-36.5,616.2-182.6,844.4l-68.5,107.3l54.8,125.5c130.1,292.1,260.1,814.7,298.9,1184.4l16,150.6l-203.1,27.4c-109.5,16-237.3,34.2-283,41.1l-84.4,11.4L9302.1-461.2z"/><path d="M5000.3-710c-98.1-68.5-225.9-141.5-285.3-162c-194-68.5-607-66.2-903.7,4.6c-45.6,11.4-52.5-4.6-100.4-262.4c-27.4-150.6-43.4-283-36.5-294.4c22.8-36.5,410.8-84.4,675.5-82.2c280.7,2.3,524.9,52.5,714.3,150.6c73,36.5,392.5,239.6,447.3,283c4.6,4.6-319.5,490.6-326.3,486.1C5182.9-586.7,5100.8-643.8,5000.3-710z"/></g></g>
</svg>