<?xml version="1.0" encoding="utf-8"?>
<!-- Svg Vector Icons : http://www.onlinewebfonts.com/icon -->
<!DOCTYPE svg PUBLIC "-//W3C//DTD SVG 1.1//EN" "http://www.w3.org/Graphics/SVG/1.1/DTD/svg11.dtd">
<svg version="1.1" xmlns="http://www.w3.org/2000/svg" xmlns:xlink="http://www.w3.org/1999/xlink" x="0px" y="0px" viewBox="0 0 1000 1000" enable-background="new 0 0 1000 1000" xml:space="preserve">
<metadata> Svg Vector Icons : http://www.onlinewebfonts.com/icon </metadata>
<g><g><g><path d="M940.4,263.1C851.6,111.9,687.7,10,500,10C312.3,10,148.4,111.9,59.6,263.1c-12.6,21.3-6.8,53.8,10.7,71.3l217.9,218c17.5,17.5,46.6,18.1,67.6,4.9c41.8-26.2,91.2-41.5,144.1-41.5c52.9,0,102.3,15.3,144.1,41.5c21,13.2,50.1,12.6,67.6-4.9l218-217.9C947.2,317,953,284.5,940.4,263.1z M502.7,380.4c-50.9,0-92.2-41.3-92.2-92.2c0-50.9,41.3-92.2,92.2-92.2c50.9,0,92.1,41.3,92.1,92.2C594.8,339.1,553.6,380.4,502.7,380.4z"/><path d="M434.9,545.1c-9.7,2.7-9,25.5,1.3,50.2l27.8,66.7c3.7-2.3,7.6-4.3,11.6-5.9l-13.6-67.6C456.9,562.2,444.6,542.4,434.9,545.1z"/><path d="M525.5,537c-10-0.9-18.1,20.7-18.1,47.5v66.8c4.6,0.3,9,0.9,13.3,2l13.4-66.5C539.3,560.5,535.5,537.9,525.5,537z"/><path d="M498,651.3v-66.8c0-26.8-8.1-48.4-18.1-47.5c-10,0.9-13.8,23.5-8.5,49.8l13.4,66.5C489,652.2,493.4,651.6,498,651.3z"/><path d="M570.5,545.1c-9.7-2.7-22,17.1-27.3,43.3l-13.6,67.6c4.1,1.6,7.9,3.6,11.6,5.9l27.8-66.7C579.4,570.5,580.1,547.8,570.5,545.1z"/><path d="M392.1,561.1c-9.1,4.4-4,26.5,10.9,48.7l44.4,66.1c2.7-3.1,5.7-5.8,8.9-8.4l-28.8-69C417.2,573.8,401.2,556.8,392.1,561.1z"/><path d="M571.5,697.6l15.2-15.2l42-42c0,0,9.4-9.4,21-21c11.6-11.6,14.1-27.1,4.8-33.7c-9.2-6.6-29.2,6.6-44.2,28.9l-46.3,68.8C567.1,687.8,569.5,692.6,571.5,697.6z"/><path d="M350.8,585.7c-9.2,6.6-6.8,22.1,4.8,33.7l21,21l42,42l15.1,15.2c2-5,4.4-9.8,7.4-14.2L395,614.6C380.1,592.4,360.1,579.1,350.8,585.7z"/><path d="M613.2,561.1c-9.1-4.4-25.1,12.7-35.4,37.4l-28.8,69c3.2,2.5,6.1,5.3,8.9,8.4l44.4-66.1C617.3,587.6,622.3,565.5,613.2,561.1z"/><path d="M600.2,785.6c-16.1-5.5-30-6.6-43.1-3.6c-4.4,1-8.6,2.7-13.1,4.7c-1.5,1-3.3,1.7-4.9,2.6c-3.8,2.1-7.6,4.2-11.8,7.1l-1.9,1.4c-0.9,0.7-2.7,1.2-3.9,1.2c-1.4,0-2.9-0.4-4.7-1.1c-1.7-0.7-3.7-1.6-6.1-2.8c-2.8-1.4-4.4-4-5.1-7.3c-0.7-3.2-0.6-7,0.1-11.2c27.1-1.6,48.8-24,48.8-51.5c0-3.3-0.4-6.4-1-9.5c-0.7-3.9-1.9-7.7-3.5-11.3c-1.5-3.4-3.4-6.5-5.5-9.5c-1.3-1.8-2.8-3.6-4.3-5.2c-2.4-2.5-5-4.8-7.8-6.8c-2.3-1.6-4.7-2.9-7.2-4.1c-2.9-1.4-5.9-2.5-9.1-3.4c-2.8-0.8-5.7-1.2-8.7-1.5c-1.6-0.2-3.1-0.5-4.7-0.5c-1.6,0-3.2,0.4-4.7,0.5c-3,0.3-5.9,0.8-8.7,1.5c-3.1,0.8-6.2,2-9.1,3.4c-2.5,1.2-4.9,2.5-7.2,4.1c-2.8,2-5.4,4.3-7.8,6.8c-1.5,1.6-3,3.4-4.3,5.2c-2.2,3-4,6.1-5.5,9.5c-1.6,3.5-2.7,7.4-3.5,11.3c-0.6,3.1-1,6.2-1,9.5c0,18.5,9.8,34.7,24.5,43.8c-3,2.6-6.3,4.8-10.2,6.5c-4.2,1.9-8.6,3-13.3,3.5c-2.4,0.2-4.8,0.7-7.2,0.6c-9.4-0.6-19.3-0.6-24.8,0.3c-31,5.2-54.5,21.6-69.8,48.6c-5.5,9.6-7.2,18.5-5.5,27.3c5.2,25.9,23.1,39,49.1,35.2c12.3-1.9,24-7.2,36.9-16.7c17.5-13,33.2-30.4,49.5-54.8l1.6-2.4c1.7-2.5,4.6-4,7.6-4c1.3,0,2.5,0.3,3.7,0.8c1.5,0.7,3.1,2.6,3.5,4.2c0.9,3.6-1.2,9-6.4,16.2c-2.6,3.5-5.1,7.1-7.4,10.7c-18.8,29.5-27.2,56.3-26.5,84.4c0.4,15.4,3.3,27.2,9,37.1c9.2,15.9,21.4,23.7,37.1,23.7l1.3,0c17.9-0.5,30.5-9.2,38.4-26.7c3.4-7.6,5.5-16.2,6.2-25.5c1.7-22.7-0.1-39.4-6-54.5c-2.4-6.2-5.5-11.3-9.3-15.5c-4.4-4.9-14.4-1.6-18.9,5.3c-3.7,5.7-4.8,9.4-5,11c2.2,1.3,4.2,3,6.1,5.2c1.8,2.2,2.8,4.5,3.7,6.6c5.8,12.8,7.3,26.5,4.7,42.2c-1.2,7-3,14.3-8.2,20.5c-3.7,4.5-8.6,7-13.8,7c-5.2,0-10-2.4-13.7-7c-1.9-2.3-3.3-4.6-4.4-6.9c-4.5-10.2-6.1-21.4-4.7-33.2c1.9-16.3,8.7-30.7,14.3-41.5c3.8-7.3,8.1-14.4,12.8-21.2c9-12.7,26.6-17,35.9-8.7l12.5,11c10.7,9.4,21.4,18.4,34.1,24.4c14.9,7,28.2,9.3,40.8,7c11.7-2.2,22.5-10.5,28.1-21.9c5.4-10.9,5.3-22.9-0.2-33.7C645.4,810.7,626.2,794.5,600.2,785.6z M437.5,838.1c-8,8.6-16.4,15.3-25.4,20.5c-8.6,4.9-16.7,7.4-25,7.4c-7.1,0-13-3.1-16.3-8.3c-3.3-5.3-3.5-11.9-0.4-18.2c3.9-8,10.2-13.4,15.8-17.7c15.5-11.6,30.7-17.8,46.4-19.1c2.5-0.2,5.1-0.3,7.7-0.3l2.5,0c9.4,0.1,14.3,0.4,15.2,5.5C459.3,814.2,437.8,837.8,437.5,838.1z M631.4,860.1c-3.2,3.3-7.8,5.1-12.8,5.1c-11.9-0.1-22.8-4.2-32.8-12.2c-6.3-5-12.4-10.3-18.5-15.5c-7.8-6.8-11.4-15.4-9.6-22.5c1.3-5.1,5.3-8.7,10.9-9.8c6.9-1.5,13.8-1.4,20.6,0.4c18,4.5,32.4,14.3,42.6,29.3c2.5,3.7,4.2,8.8,4.2,13.4C636,852.7,634.4,856.9,631.4,860.1z"/></g></g><g></g><g></g><g></g><g></g><g></g><g></g><g></g><g></g><g></g><g></g><g></g><g></g><g></g><g></g><g></g></g>
</svg>