<?xml version="1.0" encoding="iso-8859-1"?>
<!-- Generator: Adobe Illustrator 19.0.0, SVG Export Plug-In . SVG Version: 6.00 Build 0)  -->
<svg version="1.1" id="Capa_1" xmlns="http://www.w3.org/2000/svg" xmlns:xlink="http://www.w3.org/1999/xlink" x="0px" y="0px"
	 viewBox="0 0 512.003 512.003" style="enable-background:new 0 0 512.003 512.003;" xml:space="preserve">
<g>
	<g>
		<path d="M509.46,46.428c-2.563-3.01-6.573-4.354-10.438-3.51C498.074,43.136,402.251,64,256.001,64S13.928,43.136,12.981,42.917
			c-3.875-0.844-7.875,0.5-10.438,3.51c-2.563,3.01-3.25,7.198-1.781,10.865l21.333,53.333c1.49,3.729,4.948,6.302,8.938,6.667
			c0.493,0.044,21.665,1.938,53.72,4.118l-2.822,49.257H53.335c-5.896,0-10.667,4.771-10.667,10.667V224
			c0,5.896,4.771,10.667,10.667,10.667h24.646L64.022,458c-0.187,2.938,0.854,5.823,2.875,7.969c2.01,2.146,4.823,3.365,7.771,3.365
			h42.667c5.635,0,10.292-4.375,10.646-10l14.042-224.667h227.958l14.042,224.667c0.354,5.625,5.01,10,10.646,10h42.667
			c2.948,0,5.76-1.219,7.771-3.365c2.021-2.146,3.063-5.031,2.875-7.969l-13.958-223.333h24.646c5.896,0,10.667-4.771,10.667-10.667
			v-42.667c0-5.896-4.771-10.667-10.667-10.667h-28.596l-2.822-49.257c32.055-2.181,53.227-4.074,53.72-4.118
			c3.99-0.365,7.448-2.938,8.938-6.667l21.333-53.333C512.71,53.625,512.022,49.438,509.46,46.428z M224.001,170.667h-78.016
			l2.704-45.538c23.882,1.151,49.523,2.091,75.311,2.551V170.667z M288.001,170.667V127.68c25.788-0.46,51.43-1.4,75.311-2.551
			l2.704,45.538H288.001z"/>
	</g>
</g>
<g>
</g>
<g>
</g>
<g>
</g>
<g>
</g>
<g>
</g>
<g>
</g>
<g>
</g>
<g>
</g>
<g>
</g>
<g>
</g>
<g>
</g>
<g>
</g>
<g>
</g>
<g>
</g>
<g>
</g>
</svg>
